<!--
  PLACEHOLDER QR CODE
  Replace this file with a real QR code generated from:
    https://qr-code-styling.com  or  https://www.qrcode-monkey.com

  Recommended settings:
    Data:       https://royalkingwater.in  (your actual URL)
    Size:       400×400
    Format:     SVG
    Color:      #0047AB (royal-blue)
    Background: #FFFFFF
    Logo:       optional water drop icon in center

  Save the generated file as public/qr.svg
-->
<svg xmlns="http://www.w3.org/2000/svg" viewBox="0 0 160 160" width="160" height="160" aria-label="QR Code placeholder">
  <rect width="160" height="160" fill="#ffffff" rx="8"/>

  <!-- Outer border -->
  <rect x="4" y="4" width="152" height="152" fill="none" stroke="#E8ECF0" stroke-width="2" rx="6"/>

  <!-- Top-left position square -->
  <rect x="12" y="12" width="44" height="44" fill="none" stroke="#0047AB" stroke-width="3" rx="3"/>
  <rect x="20" y="20" width="28" height="28" fill="#0047AB" rx="2"/>

  <!-- Top-right position square -->
  <rect x="104" y="12" width="44" height="44" fill="none" stroke="#0047AB" stroke-width="3" rx="3"/>
  <rect x="112" y="20" width="28" height="28" fill="#0047AB" rx="2"/>

  <!-- Bottom-left position square -->
  <rect x="12" y="104" width="44" height="44" fill="none" stroke="#0047AB" stroke-width="3" rx="3"/>
  <rect x="20" y="112" width="28" height="28" fill="#0047AB" rx="2"/>

  <!-- Data modules (decorative — not scannable) -->
  <g fill="#0047AB" opacity="0.7">
    <rect x="64" y="12" width="8" height="8" rx="1"/>
    <rect x="76" y="12" width="8" height="8" rx="1"/>
    <rect x="88" y="12" width="8" height="8" rx="1"/>
    <rect x="64" y="24" width="8" height="8" rx="1"/>
    <rect x="88" y="24" width="8" height="8" rx="1"/>
    <rect x="76" y="36" width="8" height="8" rx="1"/>
    <rect x="64" y="48" width="8" height="8" rx="1"/>
    <rect x="88" y="48" width="8" height="8" rx="1"/>

    <rect x="12" y="64" width="8" height="8" rx="1"/>
    <rect x="24" y="64" width="8" height="8" rx="1"/>
    <rect x="40" y="64" width="8" height="8" rx="1"/>
    <rect x="12" y="76" width="8" height="8" rx="1"/>
    <rect x="36" y="76" width="8" height="8" rx="1"/>
    <rect x="24" y="88" width="8" height="8" rx="1"/>
    <rect x="40" y="88" width="8" height="8" rx="1"/>

    <rect x="64" y="64" width="8" height="8" rx="1"/>
    <rect x="80" y="64" width="8" height="8" rx="1"/>
    <rect x="96" y="64" width="8" height="8" rx="1"/>
    <rect x="112" y="64" width="8" height="8" rx="1"/>
    <rect x="128" y="64" width="8" height="8" rx="1"/>
    <rect x="144" y="64" width="8" height="8" rx="1"/>
    <rect x="64" y="80" width="8" height="8" rx="1"/>
    <rect x="96" y="80" width="8" height="8" rx="1"/>
    <rect x="128" y="80" width="8" height="8" rx="1"/>
    <rect x="64" y="96" width="8" height="8" rx="1"/>
    <rect x="80" y="96" width="8" height="8" rx="1"/>
    <rect x="112" y="96" width="8" height="8" rx="1"/>
    <rect x="144" y="96" width="8" height="8" rx="1"/>

    <rect x="64" y="112" width="8" height="8" rx="1"/>
    <rect x="80" y="112" width="8" height="8" rx="1"/>
    <rect x="96" y="112" width="8" height="8" rx="1"/>
    <rect x="128" y="112" width="8" height="8" rx="1"/>
    <rect x="64" y="128" width="8" height="8" rx="1"/>
    <rect x="96" y="128" width="8" height="8" rx="1"/>
    <rect x="112" y="128" width="8" height="8" rx="1"/>
    <rect x="144" y="128" width="8" height="8" rx="1"/>
    <rect x="64" y="144" width="8" height="8" rx="1"/>
    <rect x="80" y="144" width="8" height="8" rx="1"/>
    <rect x="112" y="144" width="8" height="8" rx="1"/>
    <rect x="128" y="144" width="8" height="8" rx="1"/>
  </g>

  <!-- Center watermark label -->
  <rect x="54" y="54" width="52" height="52" fill="white" rx="4"/>
  <text x="80" y="75" text-anchor="middle" font-family="system-ui,sans-serif" font-size="7" fill="#94A3B8">REPLACE</text>
  <text x="80" y="86" text-anchor="middle" font-family="system-ui,sans-serif" font-size="7" fill="#94A3B8">WITH REAL</text>
  <text x="80" y="97" text-anchor="middle" font-family="system-ui,sans-serif" font-size="7" fill="#94A3B8">QR CODE</text>
</svg>
